<svg width="48" height="61" viewBox="0 0 48 61" fill="none" xmlns="http://www.w3.org/2000/svg">
<path d="M2.6755 4.24034C3.11752 3.51349 3.75026 2.9224 4.5038 2.52967C5.25724 2.13699 6.10355 1.9571 6.95123 2.00863C7.79894 2.06016 8.61731 2.34125 9.31762 2.82271L9.31804 2.82301L43.9894 26.6726L43.9894 26.6726L43.9956 26.6769C44.6128 27.1049 45.1182 27.6756 45.4677 28.3413C45.8171 29.0071 46 29.7477 46 30.5C46 31.2523 45.8171 31.9929 45.4677 32.6587C45.1182 33.3244 44.6128 33.8951 43.9956 34.3231L43.9894 34.3274L4 6.65171L2 6.65305C1.99943 5.80173 2.23341 4.96731 2.6755 4.24034ZM2.6755 4.24034L4.38043 5.27714L2.67551 4.24033C2.67551 4.24033 2.6755 4.24034 2.6755 4.24034ZM4.38434 5.27952C4.63609 4.86554 4.99707 4.52792 5.42815 4.30325C5.85924 4.07857 6.344 3.97541 6.82988 4.00495C7.31577 4.03448 7.78425 4.19559 8.18456 4.4708L42.8559 28.3204C43.2091 28.5653 43.4976 28.8914 43.6968 29.2709C43.896 29.6504 44 30.072 44 30.5C44 30.928 43.896 31.3496 43.6968 31.7291C43.4976 32.1086 43.2091 32.4346 42.8559 32.6796L4.38434 5.27952ZM4.38538 55.7222C4.13343 55.3086 4.00016 54.8344 4 54.3509L8.18456 56.5292C7.78444 56.8043 7.3162 56.9654 6.83055 56.995C6.3449 57.0247 5.86034 56.9217 5.42934 56.6974C4.99833 56.473 4.63732 56.1358 4.38538 55.7222Z" fill="#252222" stroke="#3B3838" stroke-width="4"/>
</svg>
