<svg width="48" height="61" viewBox="0 0 48 61" fill="none" xmlns="http://www.w3.org/2000/svg">
<path d="M46 6.65305C46.0006 5.80172 45.7666 4.9673 45.3245 4.24034C44.8825 3.51349 44.2497 2.9224 43.4962 2.52967C42.7428 2.13699 41.8965 1.9571 41.0488 2.00863C40.2011 2.06016 39.3827 2.34125 38.6824 2.82271L38.682 2.82301L4.01061 26.6726L4.01061 26.6726L4.00442 26.6769C3.38716 27.1049 2.88179 27.6756 2.53235 28.3413C2.18287 29.0071 2 29.7477 2 30.5C2 31.2523 2.18287 31.9929 2.53235 32.6587C2.88179 33.3244 3.38716 33.8951 4.00442 34.3231L4.01061 34.3274L38.682 58.177L38.6824 58.1773C39.3824 58.6585 40.2003 58.9396 41.0476 58.9913C41.8949 59.043 42.7408 58.8635 43.4941 58.4714C44.2475 58.0792 44.8803 57.4888 45.3227 56.7626C45.7651 56.0364 45.9997 55.2026 46 54.3516V54.3509V6.65305ZM46 6.65305L44 6.65171M46 6.65305V6.65171H44M44 6.65171V54.3509M44 6.65171C44.0003 6.16804 43.8674 5.69349 43.6157 5.27952C43.3639 4.86554 43.0029 4.52792 42.5718 4.30325C42.1408 4.07857 41.656 3.97541 41.1701 4.00495C40.6842 4.03448 40.2157 4.19559 39.8154 4.4708L5.14409 28.3204C4.79087 28.5653 4.5024 28.8914 4.30321 29.2709C4.10402 29.6504 4 30.072 4 30.5C4 30.928 4.10402 31.3496 4.30321 31.7291C4.5024 32.1086 4.79087 32.4346 5.14409 32.6796L44 54.3509M44 54.3509C43.9998 54.8344 43.8666 55.3086 43.6146 55.7222C43.3627 56.1358 43.0017 56.473 42.5707 56.6974C42.1397 56.9217 41.6551 57.0247 41.1694 56.995C40.6838 56.9654 40.2156 56.8043 39.8154 56.5292L44 54.3509Z" fill="#252222" stroke="#3B3838" stroke-width="4"/>
</svg>
